<svg width="31" height="32" viewBox="0 0 31 32" fill="none" xmlns="http://www.w3.org/2000/svg">
<path d="M1.78084 4.84462C1.78084 3.31474 2.98445 2.06534 4.45825 2.06534H25.988C27.4618 2.06534 28.6654 3.31474 28.6654 4.84462V27.2064C28.6654 28.7363 27.4618 29.9857 25.988 29.9857H19.7367V22.451H24.0598L25.2511 15.0438H19.7367V13.1952H25.0915V5.78805H18.8401C15.4012 5.78805 12.5887 8.69482 12.5887 12.2773V15.0566H9.01475V22.4637H12.5887V29.9984H4.45825C2.98445 29.9984 1.78084 28.749 1.78084 27.2191V4.84462ZM4.45825 31.8343H14.3941V20.5896H10.8202V16.8797H14.3941V12.2518C14.3941 9.70199 16.396 7.6239 18.8524 7.6239H23.3106V11.3339H19.7367C18.7541 11.3339 17.9558 12.1625 17.9558 13.1825V16.8924H23.151L22.5614 20.6024H17.9681V31.847H26.0003C28.4566 31.847 30.4586 29.7689 30.4586 27.2191V4.84462C30.4586 2.29482 28.4566 0.216732 26.0003 0.216732H4.45825C2.00191 0.216732 0 2.29482 0 4.84462V27.2064C0 29.7562 2.00191 31.8343 4.45825 31.8343Z" fill="#00A99D"/>
</svg>
