<svg width="31" height="32" viewBox="0 0 31 32" fill="none" xmlns="http://www.w3.org/2000/svg">
<path d="M1.81588 4.98486C1.81588 3.45498 3.01948 2.20558 4.49328 2.20558H26.0108C27.4846 2.20558 28.6882 3.45498 28.6882 4.98486V27.3211C28.6882 28.851 27.4846 30.1004 26.0108 30.1004H4.49328C3.01948 30.1004 1.81588 28.851 1.81588 27.3211V4.98486ZM4.49328 31.9363H26.0108C28.4671 31.9363 30.469 29.8582 30.469 27.3084V4.98486C30.469 2.43506 28.4671 0.356972 26.0108 0.356972H4.49328C2.03694 0.356972 0.0350342 2.43506 0.0350342 4.98486V27.3211C0.0350342 29.8709 2.03694 31.949 4.49328 31.949" fill="#00A99D"/>
<path d="M15.252 9.67649C18.6909 9.67649 21.4911 12.5833 21.4911 16.153C21.4911 19.7227 18.6909 22.6295 15.252 22.6295C11.8131 22.6295 9.01289 19.7227 9.01289 16.153C9.01289 12.5833 11.8131 9.67649 15.252 9.67649ZM15.252 24.4781C19.6734 24.4781 23.2719 20.7426 23.2719 16.153C23.2719 11.5633 19.6734 7.82789 15.252 7.82789C10.8306 7.82789 7.23206 11.5633 7.23206 16.153C7.23206 20.7426 10.8306 24.4781 15.252 24.4781Z" fill="#00A99D"/>
<path d="M24.1563 5.96653C24.6476 5.96653 25.0528 6.38725 25.0528 6.89721C25.0528 7.40717 24.6476 7.82789 24.1563 7.82789C23.665 7.82789 23.2597 7.41992 23.2597 6.89721C23.2597 6.3745 23.665 5.96653 24.1563 5.96653ZM24.1563 9.67649C25.6301 9.67649 26.8337 8.42709 26.8337 6.89721C26.8337 5.36733 25.6301 4.11793 24.1563 4.11793C22.6825 4.11793 21.4789 5.36733 21.4789 6.89721C21.4789 8.42709 22.6825 9.67649 24.1563 9.67649Z" fill="#00A99D"/>
</svg>
