<svg width="32" height="32" viewBox="0 0 32 32" fill="none" xmlns="http://www.w3.org/2000/svg">
<path d="M10.4688 11.6908H6.89485C6.40358 11.6908 6.01058 12.0988 6.01058 12.6088V26.0207C6.01058 26.5307 6.40358 26.9386 6.89485 26.9386H10.4688C10.9601 26.9386 11.3531 26.5307 11.3531 26.0207V12.6088C11.3531 12.0988 10.9601 11.6908 10.4688 11.6908ZM20.724 11.2191C19.2134 11.2191 18.0098 11.6653 17.1378 12.2518C17.0027 11.9203 16.6833 11.6908 16.3272 11.6908H13.1339C12.6427 11.6908 12.2497 12.0988 12.2497 12.6088V26.0207C12.2497 26.5307 12.6427 26.9386 13.1339 26.9386H16.6956C17.1869 26.9386 17.5799 26.5307 17.5799 26.0207V17.9633C17.5799 17.4916 17.629 17.3259 17.6536 17.2622C17.801 16.8669 18.3782 16.2805 19.1397 16.2805C20.1099 16.2805 20.724 17.0582 20.724 18.2566V26.0207C20.724 26.5307 21.117 26.9386 21.6083 26.9386H25.17C25.6613 26.9386 26.0543 26.5307 26.0543 26.0207V17.6701C26.0543 13.5777 24.1015 11.2191 20.7117 11.2191M8.70026 5.66056C6.88257 5.66056 5.55615 6.92271 5.55615 8.68207C5.55615 10.4414 6.87029 11.6781 8.6757 11.6781C10.4811 11.6781 11.8075 10.4414 11.8075 8.68207V8.65658C11.7707 6.89721 10.4811 5.66056 8.70026 5.66056ZM10.4688 26.0207H6.89485V12.6088H10.4688V26.0207ZM20.724 12.1498C23.3646 12.1498 25.1823 13.7434 25.1823 17.6701V26.0207H21.6206V18.2566C21.6206 16.5355 20.6012 15.3626 19.1397 15.3626C18.0343 15.3626 17.1255 16.153 16.8307 16.9179C16.7202 17.1984 16.6956 17.5681 16.6956 17.9506V26.008H13.1339V12.596H16.3272L16.5974 14.0494C17.1255 13.1697 18.5624 12.1243 20.724 12.1243M8.70026 6.57849C10.0635 6.57849 10.8987 7.44542 10.9232 8.68207C10.9232 9.88048 10.0881 10.7602 8.6757 10.7602C7.337 10.7602 6.44043 9.88048 6.44043 8.68207C6.44043 7.48367 7.33699 6.57849 8.70026 6.57849Z" fill="#00A99D"/>
<path d="M2.32601 4.93387C2.32601 3.39124 3.52961 2.14183 5.0157 2.14183H26.6069C28.093 2.14183 29.2966 3.39124 29.2966 4.93387V27.3466C29.2966 28.8892 28.093 30.1386 26.6069 30.1386H5.0157C3.54189 30.1386 2.32601 28.8892 2.32601 27.3466V4.93387ZM5.0157 32H26.6069C29.0755 32 31.0774 29.9219 31.0774 27.3594V4.93387C31.0774 2.37132 29.0755 0.293228 26.6069 0.293228H5.0157C2.54708 0.293228 0.545166 2.38406 0.545166 4.93387V27.3466C0.545166 29.9092 2.54708 31.9873 5.0157 31.9873" fill="#00A99D"/>
</svg>
