<svg width="31" height="32" viewBox="0 0 31 32" fill="none" xmlns="http://www.w3.org/2000/svg">
<path d="M2.34688 4.98486C2.34688 3.45498 3.55049 2.20558 5.02429 2.20558H26.5418C28.0156 2.20558 29.2192 3.45498 29.2192 4.98486V27.3211C29.2192 28.851 28.0156 30.1004 26.5418 30.1004H5.02429C3.55049 30.1004 2.34688 28.851 2.34688 27.3211V4.98486ZM5.02429 31.9363H26.5418C28.9981 31.9363 31 29.8582 31 27.3084V4.98486C31 2.43506 28.9981 0.356972 26.5418 0.356972H5.02429C2.56796 0.356972 0.56604 2.43506 0.56604 4.98486V27.3211C0.56604 29.8709 2.56796 31.949 5.02429 31.949" fill="#00A99D"/>
<path d="M12.9951 27.2829C11.9511 27.2829 10.9318 27.0279 9.94923 26.5179C9.74044 26.4032 9.53165 26.2884 9.34742 26.1355L9.21232 26.0207C9.07722 25.9442 8.97898 25.8677 8.893 25.7912C7.75081 24.8478 6.98935 23.7004 6.57177 22.349C6.42439 21.8773 6.32614 21.3801 6.2893 20.8701C6.25245 20.5131 6.25244 20.1434 6.277 19.7737C6.32613 18.945 6.52264 18.1291 6.85424 17.3641C7.19813 16.561 7.67712 15.847 8.27892 15.2351C8.97898 14.5211 9.80186 13.9857 10.723 13.6414C11.3002 13.4247 11.902 13.2972 12.5161 13.2462C12.9582 13.208 13.4004 13.2207 13.8548 13.2717L14.3092 13.3227L14.3829 13.8837V14.5849C14.4075 14.9163 14.4075 15.6048 14.4075 17.2112C14.3952 17.5936 14.2478 17.7466 14.1619 17.8104L13.9653 17.9633L13.646 17.8996C13.4863 17.8486 13.3144 17.8231 13.0933 17.8104C12.8109 17.8104 12.5407 17.8359 12.2827 17.9378C11.3493 18.2948 10.8335 18.945 10.723 19.9394C10.6124 20.9084 10.9563 21.6606 11.7669 22.247C11.8897 22.3235 11.9634 22.3872 12.0371 22.451C12.1476 22.502 12.3442 22.5785 12.5407 22.6295C13.167 22.757 13.732 22.655 14.2601 22.3235C14.8742 21.9283 15.2304 21.3801 15.3655 20.6151C15.39 20.4749 15.39 20.3347 15.39 20.1944V6.4255C15.39 6.25976 15.39 6.05577 15.5497 5.87729L15.6971 5.7243H16.0164H19.1236C19.5903 5.7243 19.7991 5.96653 19.7991 6.36175C19.7991 6.57848 19.8851 7.08844 19.8974 7.12669C20.2904 9.19203 22.7467 10.4797 23.324 10.5689C23.5205 10.5944 23.7047 10.6327 23.9135 10.6199C24.2819 10.6199 24.5153 10.8621 24.5153 11.2319V11.9713C24.5399 12.749 24.5521 13.9347 24.5521 14.4829C24.5521 14.8143 24.4539 15.2223 23.8275 15.1968C23.2626 15.1968 22.673 15.1203 22.0344 14.9673C21.2729 14.7888 20.5237 14.4956 19.8237 14.0876V15.5665C19.8237 17.1219 19.8237 18.6773 19.8237 20.2199C19.8237 21.9665 19.271 23.5092 18.1902 24.7968C17.0358 26.1865 15.562 27.0024 13.8057 27.2319C13.5355 27.2701 13.2653 27.2829 12.9828 27.2829H12.9951ZM13.0319 14.2789C12.8845 14.2789 12.7372 14.2789 12.6021 14.2916C12.074 14.3299 11.5581 14.4446 11.0669 14.6231C10.2808 14.9163 9.58079 15.3753 8.97899 15.9872C8.46316 16.51 8.05785 17.1092 7.76309 17.7976C7.48061 18.4478 7.32096 19.1363 7.27183 19.8502C7.24727 20.1562 7.25955 20.4621 7.27183 20.7809C7.30868 21.2271 7.39465 21.6478 7.51746 22.043C7.87363 23.2032 8.52456 24.1849 9.47025 24.9498C9.58078 25.0518 9.64219 25.09 9.67903 25.1155L9.81413 25.2048L9.9738 25.3578C10.0721 25.4343 10.2317 25.5235 10.3791 25.6127C11.4476 26.161 12.5529 26.3649 13.6829 26.2247C15.1812 26.0335 16.4462 25.3323 17.4288 24.1466C18.3376 23.0502 18.8043 21.7243 18.8166 20.2327C18.8166 18.69 18.8166 17.1347 18.8166 15.5793V13.3737C18.7552 12.9657 19.0377 12.7872 19.1359 12.7363L19.4307 12.596L19.7746 12.851C20.5483 13.3737 21.3835 13.7562 22.2555 13.9602C22.7099 14.0621 23.1275 14.1259 23.5328 14.1514C23.5328 13.5267 23.5205 12.6343 23.5082 11.9968V11.6526C23.3854 11.6526 23.2748 11.6271 23.1643 11.6016C22.1818 11.4486 19.3815 9.89322 18.9026 7.31793C18.9026 7.31793 18.8534 7.03745 18.8166 6.75697H16.3725V20.1944C16.3725 20.3984 16.3725 20.6024 16.3357 20.7936C16.1515 21.839 15.6234 22.655 14.7759 23.2032C14.039 23.6749 13.2162 23.8279 12.3319 23.6494C12.0617 23.5984 11.8161 23.4964 11.5704 23.3944L11.423 23.3052C11.3371 23.2287 11.2756 23.1904 11.2265 23.1522C10.0598 22.3108 9.55622 21.1761 9.7036 19.8247C9.86326 18.4606 10.6247 17.4661 11.9143 16.9689C12.3073 16.8159 12.7126 16.7649 13.1302 16.7777C13.2162 16.7777 13.3021 16.7777 13.3881 16.8032C13.3881 16.102 13.3758 15.2223 13.3635 14.8271V14.2916C13.253 14.2916 13.1302 14.2916 13.0196 14.2916L13.0319 14.2789Z" fill="#00A99D"/>
</svg>
