<svg width="32" height="32" viewBox="0 0 32 32" fill="none" xmlns="http://www.w3.org/2000/svg">
<path d="M2.40157 4.62789C2.40157 3.09801 3.60517 1.84861 5.07897 1.84861H26.5965C28.0703 1.84861 29.2739 3.09801 29.2739 4.62789V26.9641C29.2739 28.494 28.0703 29.7434 26.5965 29.7434H5.07897C3.60517 29.7434 2.40157 28.494 2.40157 26.9641V4.62789ZM5.07897 31.592H26.5965C29.0528 31.592 31.0547 29.5139 31.0547 26.9641V4.62789C31.0547 2.07809 29.0528 0 26.5965 0H5.07897C2.62264 0 0.620728 2.07809 0.620728 4.62789V26.9641C0.620728 29.5139 2.62264 31.592 5.07897 31.592Z" fill="#00A99D"/>
<path d="M6.14749 10.2884C6.14749 9.17928 7.01949 8.2741 8.088 8.2741H23.7348C24.8034 8.2741 25.6754 9.17928 25.6754 10.2884V21.0614C25.6754 22.1705 24.8034 23.0757 23.7348 23.0757H8.088C7.01949 23.0757 6.14749 22.1705 6.14749 21.0614V10.2884ZM8.10027 24.4271H23.7471C25.528 24.4271 26.9895 22.9227 26.9895 21.0614V10.2884C26.9895 8.42709 25.5403 6.92271 23.7471 6.92271H8.10027C6.30715 6.92271 4.85791 8.42709 4.85791 10.2884V21.0614C4.85791 22.9227 6.30715 24.4271 8.10027 24.4271Z" fill="#00A99D"/>
<path d="M13.9708 13.4502L17.8396 15.6813L13.9708 17.9888V13.4502ZM12.6813 11.1681V20.3219L20.4801 15.6685L12.6813 11.1681Z" fill="#00A99D"/>
</svg>
