<svg width="335" height="358" viewBox="0 0 335 358" fill="none" xmlns="http://www.w3.org/2000/svg">
<path d="M179.691 27.6133H132.532L122.973 27.6881V18.334C122.973 12.2726 128.736 12.0481 128.736 12.0481H196.559C197.192 12.0481 197.754 12.2726 198.387 13.0957L206.539 27.5385C206.539 27.5385 194.732 27.5385 179.621 27.5385L179.691 27.6133ZM99.9908 27.6881V15.7897C99.9908 13.6944 101.537 12.0481 103.364 12.0481C112.782 12.1229 116.367 18.334 116.507 27.6881H99.9908ZM334.524 104.616V70.6421C334.524 51.036 333.4 25.7425 302.897 25.7425V20.8783L297.977 15.64V4.19064L293.971 0H248.217L244.211 4.19064V15.5652L239.291 20.8035V25.6676H222.072L199.511 4.26547C199.019 3.96614 198.387 3.81647 197.824 3.81647H96.6173C94.0871 3.81647 92.0489 6.06145 92.0489 8.83027V27.6881H91.6272V28.5861C61.1245 28.5861 60 53.6551 60 73.1116V106.786H66.466V282.269H60.0703V313.549C60.0703 336.523 75.9542 355.381 96.2658 357.776V358H293.69C316.11 358 334.313 338.02 334.313 313.175V281.596H327.847V104.616H334.454H334.524Z" fill="#646363"/>
<rect y="28" width="106" height="330" fill="#646363"/>
</svg>
