<svg width="89" height="60" viewBox="0 0 89 60" fill="none" xmlns="http://www.w3.org/2000/svg">
<g clip-path="url(#clip0_3_161)">
<path d="M45.7601 9.09028C45.7601 4.0678 49.8425 0 54.883 0H89.0208V9.09028C89.0208 14.1128 84.9385 18.1806 79.898 18.1806H45.7601V9.09028Z" fill="#9CA94E"/>
<path d="M43.2607 9.09028C43.2607 4.0678 39.1783 0 34.1378 0H0V9.09028C0 14.1128 4.08238 18.1806 9.12287 18.1806H43.2607V9.09028Z" fill="#9CA94E"/>
<path d="M45.7601 30.0103C45.7601 24.9878 49.8425 20.92 54.883 20.92H89.0208V30.0103C89.0208 35.0328 84.9385 39.1006 79.898 39.1006H45.7601V30.0103Z" fill="#9CA94E"/>
<path d="M43.2607 30.0103C43.2607 24.9878 39.1783 20.92 34.1378 20.92H0V30.0103C0 35.0328 4.08238 39.1006 9.12287 39.1006H43.2607V30.0103Z" fill="#9CA94E"/>
<path d="M45.7601 50.9097C45.7601 45.8873 49.8425 41.8195 54.883 41.8195H89.0208V50.9097C89.0208 55.9322 84.9385 60 79.898 60H45.7601V50.9097Z" fill="#9CA94E"/>
<path d="M43.2607 50.9097C43.2607 45.8873 39.1783 41.8195 34.1378 41.8195H0V50.9097C0 55.9322 4.08238 60 9.12287 60H43.2607V50.9097Z" fill="#9CA94E"/>
</g>
<defs>
<clipPath id="clip0_3_161">
<rect width="89" height="60" fill="white"/>
</clipPath>
</defs>
</svg>
