<svg version="1.2" xmlns="http://www.w3.org/2000/svg" viewBox="0 0 332 93" width="332" height="93"><style>.a{fill:#008177}</style><path fill-rule="evenodd" class="a" d="m0 139.9v-45.4c0-26.2 1.5-60.1 43.1-60.1v-6.5l6.7-7v-15.3l5.4-5.6h62.3l5.5 5.6v15.2l6.7 7v6.5h23.5l30.7-28.6c0.6-0.4 1.5-0.6 2.3-0.6h137.8c3.5 0 6.2 3 6.2 6.7v25.2h0.6v1.2c41.5 0 43.1 33.6 43.1 59.6v45.1h-8.8v234.7h8.7v41.8c0 30.8-21.7 56-49.3 59.2v0.3h-268.9c-30.5 0-55.3-26.7-55.3-60v-42.2h8.8v-236.8zm319.4-102.9v-15.9c0-2.8-2.1-5-4.6-5-12.8 0.1-17.7 8.4-17.9 20.9zm-108.5-0.1h64.2l13 0.1v-12.5c0-8.1-7.8-8.4-7.8-8.4h-92.4c-0.9 0-1.6 0.3-2.5 1.4l-11.1 19.3c0 0 16.1 0 36.7 0z"/></svg>