<svg version="1.2" xmlns="http://www.w3.org/2000/svg" viewBox="0 0 79 96" width="79" height="96">
	<title>Page 1</title>
	<style>
		tspan { white-space:pre } 
		.s0 { fill: #ec6608 } 
		.t1 { font-size: 87px;line-height: 26px;fill: #ffffff;font-family: "Cronos Pro" } 
	</style>
	<path id="Path 18" fill-rule="evenodd" class="s0" d="m76.7 28.4l-0.1 47.3h1.9v8.4c0 6.7-5.2 12-11.6 12h-56.2c-5.8-0.7-10.3-5.7-10.3-11.9v-8.3h1.9l-0.1-46.9h-1.8v-9c0-5.2 0.3-11.9 9-11.9v0.3q0-0.3 0-0.6h0.1v-5c0-0.7 0.6-1.3 1.3-1.3h28.8q0.2 0 0.5 0.1l6.4 5.7h4.9v-1.3l1.4-1.4v-3l1.1-1.2h13l1.2 1.2v3l1.4 1.4v1.3c8.7 0 9 6.8 9 12v9.1zm-60.2-20.6c0-2.5-1-4.1-3.7-4.1-0.5 0-1 0.4-1 1v3.1zm25.7 0l-2.4-3.9c-0.2-0.2-0.3-0.2-0.5-0.2h-19.3c0 0-1.6 0-1.6 1.6v2.5h2.7 13.4c4.3 0 7.7 0 7.7 0z"/>
	<text id="O" style="transform: matrix(1,0,0,1,8.623,79.922)" >
		<tspan x="0" y="0" class="t1">O
</tspan>
	</text>
</svg>