<svg version="1.2" xmlns="http://www.w3.org/2000/svg" viewBox="0 0 97 125" width="97" height="125"><style>.a{fill:#f37021}.b{fill:#fff}</style><path fill-rule="evenodd" class="a" d="m93.8 36.4v61.7h2.3v11c0 8.7-6.4 15.6-14.2 15.6h-68.7v-0.1c-7-0.8-12.6-7.4-12.6-15.4v-10.9h2.2v-61.1h-2.2v-11.7c0-6.8 0.4-15.5 11-15.5v-0.4h0.2v-6.5c0-1 0.7-1.8 1.5-1.8h35.3c0.2 0 0.4 0.1 0.6 0.2l7.8 7.4h6v-1.7l1.7-1.8v-3.9l1.4-1.5h15.9l1.4 1.5v3.9l1.7 1.9v1.7c10.7 0 11.1 8.8 11.1 15.6v11.8zm-73.6-26.8c-0.1-3.2-1.3-5.4-4.6-5.4-0.6 0-1.2 0.6-1.2 1.3v4.1zm22 0c5.3 0 9.4 0 9.4 0l-2.9-5c-0.2-0.3-0.4-0.4-0.6-0.4h-23.6c0 0-2 0.1-2 2.2v3.2h3.3 16.4z"/><path fill-rule="evenodd" class="b" d="m57.7 70.5h-22.5c-3.2 7.2-5.9 13.8-7.5 17-0.3 0.7-0.9 1-2 1-1.4 0-4-0.4-5.4-1v-0.5c5.2-11.1 20.2-45.2 23.2-52.2l-1.1-2.5c2-0.5 5-0.9 6.1-0.9 1.1 0 1.7 0.6 2.1 1.5 4.1 9.6 12 28.8 15.6 37 3.6 8.5 5.9 14.1 7.5 17.3v0.3c-1.9 0.7-5.4 1-6.8 1-1.2 0-1.8-0.5-2.7-2.7-2-4.6-3.4-8.2-6.5-15.3zm-20.5-5.5h18.7c-4.9-12.3-8-19.8-9.3-23-3 7.3-5.9 14.5-9.4 23z"/></svg>