<svg width="135" height="40" viewBox="0 0 135 40" fill="none" xmlns="http://www.w3.org/2000/svg">
<g clip-path="url(#clip0_2268_902)">
<path d="M8.56695 8.11953L7.43724 5.68171L9.32008 4.5158L10.5439 6.84762C10.7322 7.1656 10.7322 7.58957 10.3556 8.01353C10.2615 8.01353 8.56695 8.01353 8.56695 8.11953ZM9.03766 10.4514C8.84937 10.6633 8.4728 10.6633 8.19038 10.6633H7.3431V11.5113L6.0251 9.39143L7.3431 7.48357V8.33151H10.3556L9.03766 10.4514ZM5.83682 2.60794L6.77824 1.12405H7.24895C7.53138 1.12405 7.62552 1.33604 7.90795 1.65401L8.4728 2.50195L9.03766 2.18397L8.09624 4.30381H5.64854L6.40167 3.77385L5.83682 2.60794ZM4.14226 4.93977L2.25941 3.87985L3.67155 1.54802C3.85983 1.12405 4.2364 1.12405 4.51883 1.12405H6.40167L4.14226 4.93977ZM2.91841 10.6633C2.35356 10.6633 2.07113 10.5573 1.69456 9.70941L2.4477 8.33151H5.27197V10.6633H2.91841ZM1.50628 9.28544L0.564854 7.48357C0.470711 7.27159 0.564854 6.74163 0.753138 6.42365L1.22385 5.7877L0.658996 5.25774L2.82427 5.15175L3.67155 7.27159L3.01255 6.84762L1.50628 9.28544ZM5.64854 0.0641327C2.54184 0.0641327 0 2.92592 0 6.31766C0 9.70941 2.54184 12.5712 5.64854 12.5712C8.75523 12.5712 11.2971 9.70941 11.2971 6.21167C11.2971 2.71393 8.66109 0.0641327 5.64854 0.0641327Z" fill="white"/>
<path d="M55.5437 25.0783C55.5437 22.9584 57.3324 21.1565 59.4977 21.1565C61.663 21.1565 63.3575 22.9584 63.3575 25.0783C63.3575 27.1981 61.5688 29 59.4036 29C57.2383 29 55.5437 27.1981 55.5437 25.0783ZM55.4496 31.6498C60.1567 34.0876 66.2759 34.5115 69.9475 31.1198C72.96 28.364 73.3366 22.8524 69.9475 19.2487C65.3345 14.2671 58.7446 15.751 54.7906 19.2487V16.5989H46.2236V39.2812H55.3554C55.4496 39.3872 55.4496 31.6498 55.4496 31.6498Z" fill="white"/>
<path d="M10.0733 16.7049H1.03564V33.7696H10.0733V16.7049Z" fill="white"/>
<path d="M24.9475 33.8756V25.0783C24.9475 20.7326 31.8199 20.3086 31.8199 24.2303V33.8756H40.7634V22.6404C40.7634 14.903 28.9956 14.797 24.2885 19.7786V16.8109H16.0981V33.9816" fill="white"/>
<path d="M124.456 11.1933L119.373 24.0183L114.195 11.1933H103.557L114.289 33.7696H124.08L135 11.1933H124.456Z" fill="white"/>
<path d="M85.9519 28.47V24.0183H99.6967V19.5667H85.8578V15.751H100.921V11.1933H77.1025V33.7696H101.109V28.47" fill="white"/>
</g>
<defs>
<clipPath id="clip0_2268_902">
<rect width="135" height="39.323" fill="white" transform="translate(0 0.0641327)"/>
</clipPath>
</defs>
</svg>
