<svg width="154" height="45" viewBox="0 0 154 45" fill="none" xmlns="http://www.w3.org/2000/svg">
<path d="M9.74336 9.16156L8.45852 6.38898L10.5999 5.06297L11.9918 7.715C12.206 8.07664 12.206 8.55883 11.7777 9.04102C11.6706 9.04102 9.74336 9.04102 9.74336 9.16156ZM10.2787 11.8136C10.0646 12.0547 9.63629 12.0547 9.31508 12.0547H8.35145V13.0191L6.85248 10.6081L8.35145 8.43828V9.40266H11.7777L10.2787 11.8136ZM6.63833 2.89313L7.70903 1.20547H8.24438C8.56559 1.20547 8.67266 1.44656 8.99387 1.8082L9.63629 2.77258L10.2787 2.41094L9.20801 4.82188H6.4242L7.28076 4.21914L6.63833 2.89313ZM4.71108 5.54516L2.56968 4.33969L4.17573 1.68766C4.38987 1.20547 4.81815 1.20547 5.13936 1.20547H7.28076L4.71108 5.54516ZM3.31917 12.0547C2.67675 12.0547 2.35554 11.9341 1.92726 10.9698L2.78382 9.40266H5.99592V12.0547H3.31917ZM1.71312 10.4876L0.64242 8.43828C0.53535 8.19719 0.64242 7.59445 0.856559 7.23281L1.39191 6.50953L0.749489 5.9068L3.2121 5.78625L4.17573 8.19719L3.42624 7.715L1.71312 10.4876ZM6.4242 0C2.89089 0 0 3.25477 0 7.11227C0 10.9698 2.89089 14.2245 6.4242 14.2245C9.9575 14.2245 12.8484 10.9698 12.8484 6.99172C12.8484 3.01367 9.85043 0 6.4242 0Z" fill="white"/>
<path d="M63.1713 28.4491C63.1713 26.0381 65.2057 23.9888 67.6683 23.9888C70.1309 23.9888 72.0581 26.0381 72.0581 28.4491C72.0581 30.86 70.0238 32.9093 67.5612 32.9093C65.0986 32.9093 63.1713 30.86 63.1713 28.4491ZM63.0643 35.923C68.4178 38.6955 75.3773 39.1777 79.553 35.3202C82.9793 32.186 83.4076 25.9176 79.553 21.819C74.3066 16.1533 66.8117 17.8409 62.3148 21.819V18.8053H52.5714V44.6023H62.9572C63.0643 44.7229 63.0643 35.923 63.0643 35.923Z" fill="white"/>
<path d="M11.4566 18.9258H1.17786V38.3339H11.4566V18.9258Z" fill="white"/>
<path d="M28.3735 38.4544V28.449C28.3735 23.5066 36.1896 23.0244 36.1896 27.4847V38.4544H46.3613V25.6765C46.3613 16.8765 32.9775 16.756 27.624 22.4217V19.0464H18.309V38.575" fill="white"/>
<path d="M141.546 12.6574L135.765 27.2436L129.876 12.6574H117.777L129.983 38.3339H141.118L153.538 12.6574H141.546Z" fill="white"/>
<path d="M97.7549 32.3065V27.2436H113.387V22.1806H97.6478V17.8409H114.779V12.6574H87.6903V38.3339H114.993V32.3065" fill="white"/>
</svg>
