<svg width="200" height="200" viewBox="0 0 200 200" fill="none" xmlns="http://www.w3.org/2000/svg">
  <path d="M98.8 186.3V200M92.4 185.9L91.2 199.6M86 185.1L83.8 198.7M79.8 183.9L76.5 197.2M73.6 182.1L69.3 195.2M67.5 179.9L62.3 192.6M61.7 177.3L55.6 189.6M56 174.2L49 186M50.6 170.7L42.8 182M45.5 166.8L36.9 177.5M40.6 162.6L31.3 172.6M36.1 157.9L26.1 167.3M32.1 153.2L21.2 161.5M28.3 147.9L16.9 155.5M24.9 142.5L12.9 149.2M21.9 136.7L9.5 142.6M19.4 130.8L6.6 135.7M17.4 124.8L4.2 128.7M15.7 118.6L2.3 121.5M14.6 112.2L1 114.1M13.9 105.9L0.2 106.7M13.7 99.5H0M14 93L0.3 91.8M14.8 86.7L1.2 84.4M16 80.4L2.7 77.1M17.7 74.2L4.6 69.9M19.8 68.1L7.2 62.9M22.4 62.3L10.2 56.1M25.5 56.6L13.7 49.6M28.9 51.1L17.7 43.3M32.8 46L22.1 37.4M37 41.1L27 31.8M41.6 36.6L32.2 26.5M46.5 32.4L37.9 21.7M51.7 28.6L43.8 17.3M57.1 25.2L50.2 13.4M62.7 22.2L56.9 9.8M68.6 19.7L63.7 6.8M74.6 17.5L70.7 4.4M80.8 15.9L77.9 2.5M87.1 14.7L85.2 1.1M93.5 14L92.6 0.3M99.9 13.7V0M106.5 14L107.4 0.3M112.9 14.7L114.8 1.1M119.2 15.9L122.1 2.5M125.4 17.5L129.3 4.4M131.4 19.7L136.3 6.8M137.3 22.2L143.2 9.8M142.9 25.2L149.9 13.4M148.3 28.6L156.2 17.3M153.5 32.4L162.1 21.7M158.4 36.6L167.8 26.5M163 41.1L173 31.8M167.2 46L177.9 37.4M171.1 51.1L182.3 43.3M174.5 56.6L186.3 49.6M177.6 62.3L189.8 56.1M180.2 68.1L192.9 62.9M182.3 74.2L195.4 69.9M184 80.4L197.4 77.1M185.3 86.7L198.8 84.4M186 93L199.7 91.8M186.3 99.5H200M186.1 105.9L199.8 106.7M185.4 112.2L199 114.1M184.3 118.6L197.7 121.5M182.7 124.8L195.8 128.7M180.6 130.8L193.4 135.7M178.1 136.7L190.5 142.6M175.1 142.5L187.1 149.2M171.7 147.9L183.2 155.5M167.9 153.2L178.8 161.5M163.9 157.9L173.9 167.3M159.4 162.6L168.7 172.6M154.5 166.8L163.1 177.5M149.4 170.7L157.2 182M144 174.2L151 186M138.3 177.3L144.4 189.6M132.5 179.9L137.7 192.6M126.4 182.1L130.7 195.2M120.3 183.9L123.5 197.2M114 185.1L116.2 198.7M107.6 185.9L108.8 199.6M101.2 186.3V200" stroke="#5badce" stroke-width="1.5"/>
</svg>