<svg width="200" height="200" viewBox="0 0 200 200" fill="none" xmlns="http://www.w3.org/2000/svg">
<path d="M98.8082 186.265L98.6367 199.983M92.4119 185.94L91.1944 199.606M86.0499 185.134L83.8035 198.663M79.7565 183.865L76.4983 197.188M73.566 182.133L69.3132 195.182M67.5298 179.921L62.3339 192.61M61.6822 177.281L55.5775 189.558M56.0233 174.194L49.0268 185.991M50.6216 170.696L42.802 181.962M45.4772 166.804L36.8687 177.486M40.6413 162.551L31.2956 172.582M36.1485 157.939L26.1168 167.284M32.0844 153.155L21.1952 161.505M28.3118 147.942L16.8567 155.487M24.9164 142.455L12.9469 149.16M21.9498 136.746L9.51728 142.558M19.429 130.847L6.60207 135.734M17.354 124.76L4.20132 128.669M15.7421 118.553L2.33216 121.485M14.5932 112.226L1.01175 114.129M13.9244 105.864L0.240075 106.739M13.7357 99.4513L0 99.2798M14.0101 93.0384L0.342965 91.821M14.7646 86.677L1.23467 84.4307M15.9822 80.3841L2.65798 77.1262M17.6798 74.177L4.63003 69.9417M19.8405 68.1241L7.15082 62.9287M22.4471 62.2599L10.1689 56.1386M25.4823 56.5844L13.6672 49.5885M28.9462 51.1488L17.6798 43.3299M32.7874 45.9877L22.1041 37.38M37.0231 41.118L26.9913 31.773M41.5845 36.5741L32.2387 26.5261M46.4889 32.3903L37.8805 21.7078M51.6677 28.5837L43.8481 17.3182M57.138 25.1543L50.1586 13.3573M62.6768 22.2394L56.8636 9.80796M68.5587 19.6674L63.6714 6.84156M74.6292 17.5412L70.7022 4.38957M80.8368 15.8779L77.9045 2.46914M87.1302 14.6948L85.2268 1.11454M93.5094 13.9746L92.6348 0.291495M99.9228 13.7346L100.094 0M106.491 13.9746L107.365 0.291495M112.87 14.6948L114.773 1.11454M119.18 15.8779L122.113 2.46914M125.371 17.5412L129.298 4.38957M131.441 19.6674L136.329 6.84156M137.34 22.2394L143.154 9.80796M142.879 25.1543L149.876 13.3573M148.332 28.5837L156.152 17.3182M153.528 32.3903L162.137 21.7078M158.415 36.5741L167.761 26.5261M162.994 41.118L173.043 31.773M167.213 45.9877L177.896 37.38M171.071 51.1488L182.337 43.3299M174.535 56.5844L186.333 49.5885M177.57 62.2599L189.848 56.1386M180.177 68.1241L192.866 62.9287M182.337 74.177L195.387 69.9417M184.035 80.3841L197.359 77.1262M185.253 86.677L198.782 84.4307M186.007 93.0384L199.674 91.821M186.281 99.4513L200 99.2798M186.076 105.864L199.76 106.739M185.407 112.226L198.988 114.129M184.275 118.553L197.685 121.485M182.663 124.76L195.816 128.669M180.571 130.847L193.398 135.734M178.05 136.746L190.483 142.558M175.084 142.455L187.053 149.16M171.705 147.942L183.16 155.487M167.916 153.155L178.805 161.505M163.869 157.939L173.9 167.284M159.359 162.551L168.704 172.582M154.523 166.804L163.131 177.486M149.396 170.696L157.215 181.962M143.977 174.194L150.956 185.991M138.335 177.281L144.44 189.558M132.47 179.921L137.666 192.61M126.434 182.133L130.67 195.182M120.261 183.865L123.519 197.188M113.967 185.134L116.214 198.663M107.605 185.94L108.823 199.606M101.192 186.265L101.363 199.983" stroke="#9CA94E" stroke-width="1.5"/>
</svg>
