<svg width="201" height="305" viewBox="0 0 201 305" fill="none" xmlns="http://www.w3.org/2000/svg">
<g clip-path="url(#clip0_106_3)">
<path d="M91 130H69C56.8621 130 47 120.138 47 108V86H69C81.1379 86 91 95.8621 91 108V130Z" fill="#00A99D"/>
<line x1="69.4" y1="97.2" x2="69.4" y2="118.8" stroke="white" stroke-width="4"/>
<line x1="58.2" y1="107.2" x2="79.8" y2="107.2" stroke="white" stroke-width="4"/>
</g>
<path d="M2 305V149C2 137.954 10.9543 129 22 129H136C147.046 129 156 120.046 156 109V1" stroke="#9CA94E" stroke-width="4"/>
<g clip-path="url(#clip1_106_3)">
<path d="M157.76 9.09028C157.76 4.0678 161.843 0 166.883 0H201.021V9.09028C201.021 14.1128 196.938 18.1806 191.898 18.1806H157.76V9.09028Z" fill="#9CA94E"/>
<path d="M155.261 9.09028C155.261 4.0678 151.178 0 146.138 0H112V9.09028C112 14.1128 116.082 18.1806 121.123 18.1806H155.261V9.09028Z" fill="#9CA94E"/>
<path d="M157.76 30.0103C157.76 24.9878 161.843 20.92 166.883 20.92H201.021V30.0103C201.021 35.0328 196.938 39.1006 191.898 39.1006H157.76V30.0103Z" fill="#9CA94E"/>
<path d="M155.261 30.0103C155.261 24.9878 151.178 20.92 146.138 20.92H112V30.0103C112 35.0328 116.082 39.1006 121.123 39.1006H155.261V30.0103Z" fill="#9CA94E"/>
<path d="M157.76 50.9097C157.76 45.8873 161.843 41.8195 166.883 41.8195H201.021V50.9097C201.021 55.9322 196.938 60 191.898 60H157.76V50.9097Z" fill="#9CA94E"/>
<path d="M155.261 50.9097C155.261 45.8873 151.178 41.8195 146.138 41.8195H112V50.9097C112 55.9322 116.082 60 121.123 60H155.261V50.9097Z" fill="#9CA94E"/>
</g>
<defs>
<clipPath id="clip0_106_3">
<rect width="44" height="44" fill="white" transform="matrix(-1 0 0 1 91 86)"/>
</clipPath>
<clipPath id="clip1_106_3">
<rect width="89" height="60" fill="white" transform="translate(112)"/>
</clipPath>
</defs>
</svg>
