<svg version="1.2" xmlns="http://www.w3.org/2000/svg" viewBox="0 0 79 96" width="79" height="96">
	<title>Path 23</title>
	<style>
		tspan { white-space:pre } 
		.s0 { fill: #ec6608 } 
		.t1 { font-size: 87px;line-height: 26px;fill: #ffffff;font-family: "Cronos Pro" } 
	</style>
	<g id="Folder 2">
		<path id="Path 23" fill-rule="evenodd" class="s0" d="m76.6 28v47.3h1.9v8.4c0 6.7-5.2 12-11.6 12h-56.2v-0.1c-5.8-0.6-10.3-5.6-10.3-11.8v-8.3l1.9-0.1-0.1-46.9h-1.8v-9c0-5.2 0.3-11.9 9-11.9v0.3q0-0.2 0-0.5h0.1v-5c0-0.8 0.6-1.4 1.3-1.4h28.8q0.2 0 0.4 0.2l6.5 5.7h4.9v-1.3l1.4-1.4v-3.1l1.1-1.1h13l1.2 1.1v3.1l1.4 1.4v1.3c8.7 0 9 6.7 9 12v9.1zm-60.2-20.6c0-2.5-1.1-4.1-3.7-4.2-0.6 0-1 0.5-1 1v3.2zm25.6 0l-2.3-3.9c-0.2-0.2-0.3-0.3-0.5-0.3h-19.3c0 0-1.6 0.1-1.6 1.7v2.5h2.7 13.4c4.3 0 7.6 0 7.6 0z"/>
		<text id="W" style="transform: matrix(.866,0,0,.866,2.129,75.856)" >
			<tspan x="0" y="0" class="t1">W
</tspan>
		</text>
	</g>
</svg>