<svg width="24" height="31" viewBox="0 0 24 31" fill="none" xmlns="http://www.w3.org/2000/svg">
<path d="M10.4639 2.48946L6.34101 2.48946L5.50538 2.49585V1.69727C5.50538 1.1798 6.00922 1.16063 6.00922 1.16063L11.9386 1.16063C11.9939 1.16063 12.043 1.1798 12.0983 1.25007L12.8111 2.48307C12.8111 2.48307 11.7788 2.48307 10.4578 2.48307L10.4639 2.48946ZM3.49616 2.49585L3.49616 1.48006C3.49616 1.30118 3.63134 1.16063 3.79109 1.16063C4.61444 1.16702 4.9278 1.69727 4.94009 2.49585L3.49616 2.49585ZM24 9.06333V6.16291C24 4.48909 23.9017 2.32974 21.235 2.32974V1.91449L20.8049 1.46728V0.489827L20.4547 0.132065L16.4547 0.132065L16.1045 0.489827V1.46089L15.6743 1.9081V2.32336L14.169 2.32336L12.1966 0.496215C12.1536 0.470661 12.0983 0.457884 12.0492 0.457884L3.20123 0.457884C2.98003 0.457884 2.80184 0.649542 2.80184 0.88592L2.80184 2.49585H2.76498V2.57251C0.0983102 2.57251 0 4.71269 0 6.37373L0 9.2486H0.565284L0.565284 24.2299H0.00614439L0.00614439 26.9003C0.00614439 28.8616 1.39478 30.4715 3.17051 30.676V30.6951L20.4301 30.6951C22.3902 30.6951 23.9816 28.9894 23.9816 26.8684V24.1724H23.4163L23.4163 9.06333H23.9939H24Z" fill="white"/>
</svg>
