<svg version="1.2" xmlns="http://www.w3.org/2000/svg" viewBox="0 0 62 79" width="62" height="79"><style>.a{fill:#f37021}.b{fill:#fff}</style><path fill-rule="evenodd" class="a" d="m59.9 23v38.9h1.5v6.9c0 5.5-4.1 9.9-9.1 9.9h-44.2v-0.1c-4.5-0.5-8.1-4.7-8.1-9.7v-6.9h1.4v-38.5h-1.4v-7.4c0-4.3 0.3-9.8 7.1-9.8v-0.2h0.1v-4.2c0-0.6 0.4-1.1 1-1.1h22.6q0.2 0 0.4 0.1l5.1 4.7h3.8v-1l1.1-1.2v-2.5l0.9-0.9h10.2l0.9 0.9v2.5l1.1 1.2v1.1c6.9 0 7.1 5.5 7.1 9.8v7.5zm-47.3-16.9c0-2.1-0.8-3.4-2.9-3.5-0.4 0-0.8 0.4-0.8 0.9v2.6zm14.2 0c3.3 0 6 0 6 0l-1.8-3.2c-0.2-0.2-0.3-0.3-0.5-0.3h-15.1c0 0-1.3 0.1-1.3 1.4v2.1h2.1 10.6z"/><path class="b" d="m15.9 64.3v-34.5c0-3.5 0-6.6-0.3-9.9 2-0.3 6.5-0.8 10.6-0.8 10.3 0 17.7 4 17.7 14.2 0 9.9-8.2 14.2-13.9 14.2-1.7 0-3.1-0.2-4-0.8-0.7-0.4-1.7-2.1-1.6-3.6 1 0.3 2.5 0.4 3.6 0.4 3.6 0 9.1-2 9.1-10 0-8.5-6.3-10.1-10.9-10.1-1.3 0-2.6 0-3.9 0.2v32.6c0 5.1 0.2 7.3 0.2 8.8-1.1 0.3-3.8 0.6-5.4 0.6-0.7 0-1.2-0.3-1.2-1.3z"/></svg>